<svg xmlns="http://www.w3.org/2000/svg" version="1.1" xmlns:xlink="http://www.w3.org/1999/xlink" xmlns:svgjs="http://svgjs.dev/svgjs" width="1500" height="1406" viewBox="0 0 1500 1406"><g transform="matrix(1,0,0,1,0,0)"><svg viewBox="0 0 384 360" data-background-color="#b10dc9" preserveAspectRatio="xMidYMid meet" height="1406" width="1500" xmlns="http://www.w3.org/2000/svg" xmlns:xlink="http://www.w3.org/1999/xlink"><g id="tight-bounds" transform="matrix(1,0,0,1,0,0)"><svg viewBox="0 0 384 360" height="360" width="384"><rect width="384" height="360" fill="url(#1ed9b73a-1abb-48c8-adbe-223e7d64ecf0)" mask="url(#97df7471-b9b3-40a0-8d9e-a762d5ad1a30)" data-fill-palette-color="tertiary"></rect><g><svg></svg></g><g><svg viewBox="0 0 384 360" height="360" width="384"><g><path d="M362.354 145.441v-42.24c0-21.12-19.163-38.402-42.587-38.402h-93.208c-15.198 0-28.337-8.831-34.559-21.646-6.222 12.81-19.36 21.646-34.559 21.646h-93.208c-23.424 0-42.587 17.282-42.587 38.402v42.24c0 15.198-8.831 28.337-21.646 34.559 12.81 6.222 21.646 19.36 21.646 34.559v42.24c0 21.12 19.163 38.402 42.587 38.402h93.208c15.198 0 28.337 8.831 34.559 21.646 6.222-12.81 19.36-21.646 34.559-21.646h93.208c23.424 0 42.587-17.282 42.587-38.402v-42.24c0-15.198 8.831-28.337 21.646-34.559-12.81-6.222-21.646-19.36-21.646-34.559z" fill="url(#1ed9b73a-1abb-48c8-adbe-223e7d64ecf0)" fill-rule="nonzero" stroke="none" stroke-width="1" stroke-linecap="butt" stroke-linejoin="miter" stroke-miterlimit="10" stroke-dasharray="" stroke-dashoffset="0" font-family="none" font-weight="none" font-size="none" text-anchor="none" style="mix-blend-mode: normal" data-fill-palette-color="tertiary"></path></g><g transform="matrix(1,0,0,1,125.83884297520662,99)"><svg viewBox="0 0 132.32231404958677 162" height="162" width="132.32231404958677"><g><svg viewBox="0 0 132.32231404958677 162" height="162" width="132.32231404958677"><g><svg viewBox="0 0 132.32231404958677 162" height="162" width="132.32231404958677"><g id="textblocktransform"><svg viewBox="0 0 132.32231404958677 162" height="162" width="132.32231404958677" id="textblock"><g><svg viewBox="0 0 132.32231404958677 162" height="162" width="132.32231404958677"><g transform="matrix(1,0,0,1,0,0)"><svg width="132.32231404958677" viewBox="-2.15 -35.9 29.65 36.3" height="162" data-palette-color="#111111"><path d="M6.3-33.3Q9.75-33.15 14.23-32.7 18.7-32.25 20.6-32.25 22.5-32.25 23.45-32.55L23.45-32.55Q25.75-34.75 26.7-35.9L26.7-35.9 27.5-35.3Q24.85-31.85 24.3-28.1L24.3-28.1Q19.35-29.45 15.25-29.75L15.25-29.75Q14.9-24.3 14.9-15.43 14.9-6.55 15.55-1.75L15.55-1.75Q18.05-1.5 21.05-0.8L21.05-0.8 20.9 0.4Q17.2 0 12.88 0 8.55 0 5.9 0.4L5.9 0.4 5.7-0.85Q7.95-1.55 10.5-1.9L10.5-1.9Q11.05-6 11.05-14.8L11.05-14.8 11.05-17.75Q11.05-22.7 10.45-29.9L10.45-29.9 9.15-29.9Q3.25-29.9 1.6-28.3L1.6-28.3Q1.25-27.6 1.25-26.1 1.25-24.6 1.75-24.05L1.75-24.05 1.7-23.7Q0.45-22.95-0.8-21.6L-0.8-21.6Q-1.4-21.65-1.78-22.1-2.15-22.55-2.15-23.15L-2.15-23.15Q-2.15-25.6 0.8-29 3.75-32.4 6.3-33.3L6.3-33.3Z" opacity="1" transform="matrix(1,0,0,1,0,0)" fill="#111111" class="wordmark-text-0" data-fill-palette-color="quaternary" id="text-0"></path></svg></g></svg></g></svg></g></svg></g><g></g></svg></g></svg></g></svg></g><defs></defs><mask id="97df7471-b9b3-40a0-8d9e-a762d5ad1a30"><g id="SvgjsG5429"><svg viewBox="0 0 384 360" height="360" width="384"><g><svg></svg></g><g><svg viewBox="0 0 384 360" height="360" width="384"><g><path d="M362.354 145.441v-42.24c0-21.12-19.163-38.402-42.587-38.402h-93.208c-15.198 0-28.337-8.831-34.559-21.646-6.222 12.81-19.36 21.646-34.559 21.646h-93.208c-23.424 0-42.587 17.282-42.587 38.402v42.24c0 15.198-8.831 28.337-21.646 34.559 12.81 6.222 21.646 19.36 21.646 34.559v42.24c0 21.12 19.163 38.402 42.587 38.402h93.208c15.198 0 28.337 8.831 34.559 21.646 6.222-12.81 19.36-21.646 34.559-21.646h93.208c23.424 0 42.587-17.282 42.587-38.402v-42.24c0-15.198 8.831-28.337 21.646-34.559-12.81-6.222-21.646-19.36-21.646-34.559z" fill="white" fill-rule="nonzero" stroke="none" stroke-width="1" stroke-linecap="butt" stroke-linejoin="miter" stroke-miterlimit="10" stroke-dasharray="" stroke-dashoffset="0" font-family="none" font-weight="none" font-size="none" text-anchor="none" style="mix-blend-mode: normal"></path></g><g transform="matrix(1,0,0,1,125.83884297520662,99)"><svg viewBox="0 0 132.32231404958677 162" height="162" width="132.32231404958677"><g><svg viewBox="0 0 132.32231404958677 162" height="162" width="132.32231404958677"><g><svg viewBox="0 0 132.32231404958677 162" height="162" width="132.32231404958677"><g id="SvgjsG5428"><svg viewBox="0 0 132.32231404958677 162" height="162" width="132.32231404958677" id="SvgjsSvg5427"><g><svg viewBox="0 0 132.32231404958677 162" height="162" width="132.32231404958677"><g transform="matrix(1,0,0,1,0,0)"><svg width="132.32231404958677" viewBox="-2.15 -35.9 29.65 36.3" height="162" data-palette-color="#111111"><path d="M6.3-33.3Q9.75-33.15 14.23-32.7 18.7-32.25 20.6-32.25 22.5-32.25 23.45-32.55L23.45-32.55Q25.75-34.75 26.7-35.9L26.7-35.9 27.5-35.3Q24.85-31.85 24.3-28.1L24.3-28.1Q19.35-29.45 15.25-29.75L15.25-29.75Q14.9-24.3 14.9-15.43 14.9-6.55 15.55-1.75L15.55-1.75Q18.05-1.5 21.05-0.8L21.05-0.8 20.9 0.4Q17.2 0 12.88 0 8.55 0 5.9 0.4L5.9 0.4 5.7-0.85Q7.95-1.55 10.5-1.9L10.5-1.9Q11.05-6 11.05-14.8L11.05-14.8 11.05-17.75Q11.05-22.7 10.45-29.9L10.45-29.9 9.15-29.9Q3.25-29.9 1.6-28.3L1.6-28.3Q1.25-27.6 1.25-26.1 1.25-24.6 1.75-24.05L1.75-24.05 1.7-23.7Q0.45-22.95-0.8-21.6L-0.8-21.6Q-1.4-21.65-1.78-22.1-2.15-22.55-2.15-23.15L-2.15-23.15Q-2.15-25.6 0.8-29 3.75-32.4 6.3-33.3L6.3-33.3Z" opacity="1" transform="matrix(1,0,0,1,0,0)" fill="black" class="wordmark-text-0" id="SvgjsPath5426"></path></svg></g></svg></g></svg></g></svg></g><g></g></svg></g></svg></g></svg></g><defs><mask></mask></defs></svg><rect width="384" height="360" fill="black" stroke="none" visibility="hidden"></rect></g></mask><linearGradient x1="0" x2="1" y1="0.578" y2="0.595" id="1ed9b73a-1abb-48c8-adbe-223e7d64ecf0"><stop stop-color="#dede50" offset="0"></stop><stop stop-color="#559c49" offset="1"></stop></linearGradient></svg><rect width="384" height="360" fill="none" stroke="none" visibility="hidden"></rect></g></svg></g></svg>