<svg xmlns="http://www.w3.org/2000/svg" version="1.1" xmlns:xlink="http://www.w3.org/1999/xlink" xmlns:svgjs="http://svgjs.dev/svgjs" width="1500" height="1500" viewBox="0 0 1500 1500"><rect width="1500" height="1500" fill="#000000"></rect><g transform="matrix(0.6666666666666666,0,0,0.6666666666666666,248.70132618181816,282.6666666666667)"><svg viewBox="0 0 385 360" data-background-color="#754cbe" preserveAspectRatio="xMidYMid meet" height="1402" width="1500" xmlns="http://www.w3.org/2000/svg" xmlns:xlink="http://www.w3.org/1999/xlink"><g id="tight-bounds" transform="matrix(1,0,0,1,0.5,0)"><svg viewBox="0 0 384 360" height="360" width="384"><rect width="384.00001058" height="360" fill="#ffffff" mask="url(#fb64f259-9205-45cf-9158-2799ff505719)" data-fill-palette-color="tertiary"></rect><g><svg></svg></g><g><svg viewBox="0 0 384 360" height="360" width="384"><g><path transform="translate(-42.61557,-54.61557) scale(4.69231,4.69231)" d="M86.305 42.635v-9.002c0-4.501-4.084-8.184-9.076-8.184h-19.864c-3.239 0-6.039-1.882-7.365-4.613-1.326 2.73-4.126 4.613-7.365 4.613h-19.864c-4.992 0-9.076 3.683-9.076 8.184v9.002c0 3.239-1.882 6.039-4.613 7.365 2.73 1.326 4.613 4.126 4.613 7.365v9.002c0 4.501 4.084 8.184 9.076 8.184h19.864c3.239 0 6.039 1.882 7.365 4.613 1.326-2.73 4.126-4.613 7.365-4.613h19.864c4.992 0 9.076-3.683 9.076-8.184v-9.002c0-3.239 1.882-6.039 4.613-7.365-2.73-1.326-4.613-4.126-4.613-7.365z" fill="#ffffff" fill-rule="nonzero" stroke="none" stroke-width="1" stroke-linecap="butt" stroke-linejoin="miter" stroke-miterlimit="10" stroke-dasharray="" stroke-dashoffset="0" font-family="none" font-weight="none" font-size="none" text-anchor="none" style="mix-blend-mode: normal" data-fill-palette-color="tertiary"></path></g><g transform="matrix(1,0,0,1,113.0192411646101,99)"><svg viewBox="0 0 157.9615176707798 162" height="162" width="157.9615176707798"><g><svg viewBox="0 0 230.39999999999998 236.29046207185462" height="162" width="157.9615176707798"><g transform="matrix(1,0,0,1,0,184.40476790790896)"><svg viewBox="0 0 230.39999999999998 51.88569416394567" height="51.88569416394567" width="230.39999999999998"><g id="textblocktransform"><svg viewBox="0 0 230.39999999999998 51.88569416394567" height="51.88569416394567" width="230.39999999999998" id="textblock"><g><svg viewBox="0 0 230.39999999999998 51.88569416394567" height="51.88569416394567" width="230.39999999999998"><g transform="matrix(1,0,0,1,0,0)"><svg width="230.39999999999998" viewBox="-3.1921412499999997 -32.23342903918241 191.44156127281562 43.11230585059751" height="51.88569416394567" data-palette-color="#111111"><path d="M16.112 9.794l-0.666 0.14c-0.633 0.133-1.113 0.135-1.439 0.007-0.328-0.135-0.525-0.36-0.591-0.673v0l-6.043-28.721-9.13 1.921c-0.6 0.126-1-0.284-1.199-1.229v0l-0.161-0.764c-0.2-0.952-0.001-1.492 0.6-1.618v0l22.35-4.702c0.633-0.133 1.049 0.277 1.25 1.229v0l0.161 0.763c0.199 0.946-0.018 1.486-0.651 1.618v0l-8.934 1.88 6.043 28.721c0.066 0.313-0.024 0.598-0.27 0.854-0.247 0.25-0.687 0.441-1.32 0.574zM33.671 6.497l-0.385 0.059c-0.705 0.107-1.208 0.085-1.507-0.065-0.307-0.156-0.484-0.392-0.532-0.708v0l-5.171-34.111c-0.053-0.349 0.045-0.634 0.295-0.853 0.243-0.219 0.718-0.382 1.423-0.489v0l0.386-0.059c0.699-0.106 1.2-0.091 1.503 0.045 0.297 0.137 0.472 0.38 0.526 0.73v0l1.966 12.972c0.478-0.76 1.055-1.444 1.732-2.053 0.675-0.615 1.431-1.124 2.267-1.527 0.842-0.404 1.695-0.672 2.558-0.803v0c1.635-0.248 3.083-0.147 4.345 0.303 1.267 0.442 2.298 1.192 3.092 2.252 0.801 1.059 1.325 2.405 1.573 4.04v0l2.527 16.669c0.048 0.316-0.048 0.594-0.288 0.833-0.241 0.232-0.715 0.402-1.42 0.508v0l-0.386 0.059c-0.705 0.107-1.208 0.085-1.506-0.065-0.307-0.156-0.484-0.392-0.532-0.708v0l-2.469-16.284c-0.233-1.536-0.817-2.634-1.754-3.295-0.93-0.661-2.195-0.871-3.797-0.628v0c-0.771 0.117-1.505 0.366-2.202 0.749-0.691 0.381-1.312 0.866-1.863 1.455-0.55 0.596-0.996 1.28-1.337 2.054v0l2.664 17.579c0.048 0.316-0.048 0.594-0.288 0.833-0.248 0.233-0.721 0.403-1.42 0.508zM59.975 3.165l-0.189 0.017c-0.677 0.061-1.181 0.01-1.51-0.155-0.323-0.172-0.5-0.417-0.528-0.735v0l-1.547-17.08c-0.12-1.321-0.258-2.4-0.414-3.236-0.155-0.829-0.295-1.483-0.418-1.96-0.124-0.477-0.194-0.812-0.212-1.005v0c-0.014-0.159 0.069-0.314 0.249-0.465 0.181-0.144 0.414-0.268 0.699-0.374 0.278-0.106 0.579-0.19 0.901-0.252 0.322-0.063 0.61-0.105 0.862-0.129v0c0.292-0.026 0.537 0.055 0.735 0.245 0.199 0.196 0.393 0.53 0.583 1.002 0.183 0.472 0.378 1.104 0.583 1.895v0c0.469-0.886 1.028-1.626 1.677-2.221 0.642-0.594 1.357-1.057 2.143-1.389 0.78-0.332 1.638-0.54 2.574-0.624v0c0.551-0.05 0.974 0.042 1.27 0.276 0.296 0.234 0.467 0.607 0.513 1.118v0c0.032 0.359 0.041 0.709 0.025 1.053-0.016 0.343-0.062 0.648-0.137 0.916-0.07 0.267-0.153 0.486-0.252 0.655-0.098 0.17-0.231 0.262-0.397 0.277v0c-0.226 0.02-0.514-0.017-0.864-0.113-0.351-0.102-0.894-0.12-1.631-0.053v0c-1.102 0.1-2.05 0.497-2.844 1.192-0.801 0.688-1.3 1.577-1.496 2.666v0l1.561 17.229c0.029 0.319-0.107 0.592-0.408 0.82-0.308 0.222-0.817 0.365-1.528 0.43zM83.805 2.009v0c-3.724 0.142-6.619-0.718-8.685-2.581-2.066-1.869-3.189-5.149-3.367-9.839v0c-0.108-2.818 0.238-5.216 1.036-7.195 0.805-1.972 2.038-3.5 3.698-4.584 1.66-1.084 3.702-1.672 6.127-1.765v0c2.198-0.084 4.055 0.322 5.571 1.219 1.509 0.903 2.662 2.277 3.459 4.121 0.798 1.851 1.249 4.135 1.352 6.853v0c0.011 0.293-0.057 0.606-0.204 0.939-0.148 0.326-0.347 0.607-0.598 0.843-0.251 0.236-0.523 0.36-0.817 0.371v0l-15.289 0.584c0.162 2.682 0.867 4.634 2.115 5.853 1.247 1.213 3.1 1.773 5.558 1.68v0c1.552-0.059 2.865-0.286 3.937-0.681 1.072-0.401 1.918-0.79 2.538-1.167 0.613-0.377 1.002-0.569 1.168-0.575v0c0.227-0.009 0.432 0.12 0.616 0.386 0.19 0.266 0.359 0.577 0.506 0.932 0.14 0.348 0.215 0.652 0.224 0.912v0c0.011 0.293-0.209 0.635-0.661 1.026-0.459 0.384-1.094 0.779-1.906 1.183-0.812 0.405-1.763 0.741-2.854 1.01-1.091 0.268-2.265 0.427-3.524 0.475zM75.955-12.523v0l12.811-0.488c-0.097-2.551-0.703-4.446-1.818-5.685-1.115-1.238-2.661-1.82-4.64-1.745v0c-1.419 0.054-2.603 0.413-3.552 1.077-0.948 0.67-1.661 1.581-2.137 2.733-0.47 1.152-0.691 2.522-0.664 4.108zM105.59 1.997v0c-2.366-0.062-4.326-0.703-5.882-1.925-1.555-1.228-2.3-3.088-2.235-5.58v0c0.043-1.646 0.356-3.028 0.938-4.147 0.576-1.119 1.496-2.005 2.761-2.659 1.264-0.647 2.93-1.097 4.997-1.35 2.061-0.253 4.58-0.341 7.559-0.263v0l0.059-2.279c0.019-0.746-0.123-1.43-0.426-2.052-0.31-0.628-0.841-1.136-1.591-1.522-0.75-0.393-1.788-0.607-3.114-0.641v0c-1.46-0.038-2.753 0.088-3.882 0.379-1.121 0.298-2.036 0.597-2.744 0.898-0.702 0.308-1.166 0.46-1.392 0.454v0c-0.16-0.004-0.311-0.088-0.454-0.252-0.142-0.17-0.276-0.394-0.402-0.67-0.119-0.277-0.215-0.562-0.288-0.858-0.072-0.295-0.106-0.556-0.1-0.783v0c0.007-0.253 0.287-0.536 0.843-0.848 0.562-0.312 1.306-0.609 2.234-0.892 0.934-0.282 1.961-0.516 3.079-0.7 1.125-0.177 2.254-0.251 3.387-0.222v0c1.46 0.038 2.758 0.242 3.895 0.612 1.144 0.37 2.094 0.895 2.85 1.575 0.762 0.687 1.341 1.506 1.737 2.456 0.395 0.951 0.577 2.026 0.546 3.225v0l-0.281 10.777c-0.035 1.326-0.023 2.414 0.034 3.262 0.058 0.842 0.124 1.5 0.199 1.975 0.068 0.469 0.099 0.816 0.093 1.043v0c-0.004 0.16-0.105 0.304-0.302 0.432-0.203 0.121-0.449 0.218-0.737 0.291-0.295 0.072-0.607 0.131-0.935 0.176-0.321 0.038-0.612 0.054-0.872 0.047v0c-0.293-0.008-0.517-0.12-0.671-0.337-0.155-0.211-0.292-0.568-0.412-1.071-0.113-0.51-0.24-1.17-0.379-1.981v0c-0.604 0.664-1.31 1.26-2.117 1.785-0.807 0.532-1.709 0.949-2.704 1.25-0.995 0.294-2.092 0.426-3.291 0.395zM105.872-1.547v0c1.166 0.03 2.2-0.103 3.102-0.4 0.895-0.303 1.715-0.695 2.461-1.176 0.739-0.481 1.423-1.007 2.052-1.577v0l0.15-5.728c-2.393-0.062-4.354-0.024-5.885 0.117-1.524 0.134-2.711 0.386-3.561 0.757-0.856 0.364-1.453 0.876-1.791 1.534-0.344 0.651-0.528 1.447-0.552 2.386v0c-0.034 1.293 0.29 2.288 0.972 2.987 0.675 0.698 1.693 1.065 3.052 1.1zM132.301 3.636v0c-1.932-0.178-3.539-0.822-4.823-1.932-1.277-1.109-2.183-2.648-2.717-4.619-0.535-1.971-0.676-4.324-0.423-7.059v0c0.235-2.549 0.809-4.776 1.721-6.68 0.905-1.898 2.087-3.349 3.545-4.352 1.458-1.004 3.124-1.419 4.995-1.247v0c1.288 0.119 2.55 0.446 3.786 0.982 1.236 0.536 2.274 1.184 3.115 1.945v0l1.107-11.999c0.032-0.352 0.22-0.602 0.561-0.752 0.335-0.15 0.858-0.192 1.568-0.127v0l0.19 0.018c0.677 0.062 1.163 0.198 1.459 0.406 0.289 0.207 0.417 0.487 0.384 0.839v0l-2.589 28.06c-0.122 1.321-0.182 2.407-0.18 3.258 0.002 0.844 0.022 1.505 0.058 1.983 0.037 0.472 0.045 0.821 0.024 1.047v0c-0.015 0.159-0.124 0.296-0.329 0.411-0.204 0.108-0.456 0.189-0.755 0.242-0.293 0.053-0.604 0.092-0.935 0.115-0.33 0.016-0.62 0.013-0.873-0.01v0c-0.292-0.027-0.508-0.154-0.647-0.382-0.147-0.221-0.261-0.586-0.341-1.096-0.086-0.517-0.172-1.184-0.257-2.002v0c-0.713 0.684-1.505 1.26-2.379 1.729-0.874 0.475-1.759 0.815-2.655 1.021-0.897 0.212-1.766 0.279-2.61 0.201zM133.896 0.177v0c1.029 0.095 2.095-0.108 3.199-0.608 1.104-0.501 2.059-1.236 2.865-2.206v0l1.178-12.766c-0.889-0.959-1.86-1.715-2.914-2.267-1.054-0.552-2.098-0.876-3.134-0.972v0c-1.772-0.164-3.227 0.539-4.362 2.108-1.136 1.569-1.845 3.887-2.128 6.954v0c-0.295 3.193 0.045 5.574 1.018 7.143 0.98 1.57 2.406 2.441 4.278 2.614zM153.55 6.046l-0.385-0.062c-0.704-0.113-1.176-0.286-1.416-0.52-0.245-0.242-0.342-0.521-0.291-0.836v0l2.709-16.935c0.21-1.31 0.342-2.389 0.396-3.238 0.054-0.842 0.079-1.51 0.078-2.003-0.002-0.493 0.012-0.835 0.043-1.026v0c0.025-0.158 0.144-0.288 0.355-0.389 0.211-0.095 0.468-0.158 0.77-0.19 0.296-0.034 0.607-0.041 0.935-0.023 0.328 0.019 0.617 0.048 0.867 0.088v0c0.29 0.046 0.497 0.184 0.623 0.414 0.131 0.237 0.222 0.596 0.273 1.076 0.057 0.488 0.098 1.16 0.124 2.015v0c0.761-0.661 1.585-1.195 2.473-1.599 0.881-0.399 1.785-0.67 2.713-0.812 0.922-0.15 1.83-0.153 2.725-0.01v0c1.633 0.261 2.981 0.798 4.047 1.61 1.073 0.806 1.826 1.835 2.261 3.086 0.441 1.252 0.531 2.694 0.27 4.327v0l-2.664 16.648c-0.051 0.316-0.227 0.551-0.528 0.706-0.3 0.148-0.803 0.165-1.507 0.052v0l-0.385-0.062c-0.704-0.113-1.176-0.286-1.416-0.52-0.245-0.242-0.342-0.521-0.291-0.836v0l2.601-16.263c0.245-1.534 0.023-2.758-0.668-3.672-0.684-0.913-1.826-1.497-3.426-1.753v0c-0.77-0.123-1.546-0.109-2.326 0.043-0.774 0.153-1.513 0.426-2.217 0.82-0.705 0.4-1.338 0.917-1.899 1.549v0l-2.809 17.557c-0.051 0.316-0.227 0.551-0.528 0.705-0.307 0.147-0.809 0.164-1.507 0.053zM179.56 10.765l-0.381-0.08c-0.698-0.146-1.161-0.342-1.39-0.587-0.233-0.253-0.317-0.536-0.251-0.85v0l4.815-22.971c0.072-0.346 0.264-0.578 0.575-0.697 0.304-0.12 0.806-0.107 1.504 0.04v0l0.382 0.08c0.692 0.145 1.156 0.334 1.393 0.568 0.231 0.232 0.31 0.521 0.237 0.867v0l-4.814 22.97c-0.066 0.313-0.253 0.54-0.562 0.68-0.314 0.132-0.816 0.125-1.508-0.02zM185.316-17.669v0c-0.757-0.159-1.275-0.366-1.556-0.622-0.28-0.256-0.387-0.544-0.319-0.864v0l0.597-2.848c0.067-0.32 0.28-0.541 0.639-0.663 0.359-0.122 0.918-0.104 1.675 0.054v0c0.763 0.16 1.283 0.361 1.559 0.603 0.284 0.237 0.389 0.531 0.316 0.884v0l-0.597 2.848c-0.067 0.32-0.28 0.541-0.64 0.663-0.353 0.124-0.911 0.105-1.674-0.055z" opacity="1" transform="matrix(1,0,0,1,0,0)" fill="#000000" class="wordmark-text-0" data-fill-palette-color="quaternary" id="text-0"></path></svg></g></svg></g></svg></g></svg></g><g transform="matrix(1,0,0,1,49.49552574417778,0)"><svg viewBox="0 0 131.4089485116444 167.90210631452817" height="167.90210631452817" width="131.4089485116444"><g><svg xmlns="http://www.w3.org/2000/svg" xmlns:xlink="http://www.w3.org/1999/xlink" version="1.1" x="0" y="0" viewBox="11.996 2 72.004 92" enable-background="new 0 0 96 96" xml:space="preserve" height="167.90210631452817" width="131.4089485116444" class="icon-icon-0" data-fill-palette-color="quaternary" id="icon-0"><path d="M82.712 51.484L67.8 45.792 78.645 42.064A1.995 1.995 0 0 0 79.993 40.172V8C79.993 6.896 79.093 6 77.993 6S75.993 6.896 75.993 8V38.744L63.797 42.936C63.78 42.8 63.776 42.66 63.757 42.524L71.07 37.86C71.65 37.492 71.99 36.86 71.99 36.176V4A2 2 0 0 0 67.99 4V35.076L62.738 38.428A16.7 16.7 0 0 0 55.986 30.365V24A2 2 0 0 0 51.986 24V28.604C50.712 28.252 49.384 28 47.996 28S45.28 28.252 43.996 28.604V24A2 2 0 0 0 39.996 24V30.364A16.72 16.72 0 0 0 33.248 38.427L27.996 35.075V4A2 2 0 0 0 23.996 4V36.172C23.996 36.856 24.344 37.492 24.916 37.856L32.232 42.52C32.212 42.656 32.208 42.796 32.192 42.932L19.996 38.74V8A2 2 0 0 0 15.996 8V40.172C15.996 41.024 16.54 41.784 17.344 42.064L27.492 45.548 13.224 51.508A2 2 0 0 0 11.996 53.352V92C11.996 93.1 12.892 94 13.996 94S15.996 93.1 15.996 92V54.684L26.348 50.36 20.604 55.917C20.216 56.297 19.996 56.817 19.996 57.353V88C19.996 89.1 20.892 90 21.996 90S23.996 89.1 23.996 88V58.2L26.384 55.892A22.3 22.3 0 0 0 25.996 59.999C25.996 72.131 35.864 81.999 47.996 81.999S69.996 72.131 69.996 59.999C69.996 58.599 69.863 57.235 69.607 55.892L71.996 58.2V88C71.996 89.1 72.892 90 73.996 90S75.996 89.1 75.996 88V57.352C75.996 56.809 75.771 56.292 75.392 55.916L70.351 51.044 80 54.729V92C80 93.1 80.9 94 82 94 83.104 94 84 93.1 84 92V53.352A2.01 2.01 0 0 0 82.712 51.484" fill="#000000" data-fill-palette-color="quaternary"></path></svg></g></svg></g><g></g></svg></g></svg></g></svg></g><defs></defs><mask id="fb64f259-9205-45cf-9158-2799ff505719"><g id="SvgjsG3277"><svg viewBox="0 0 384 360" height="360" width="384"><g><svg></svg></g><g><svg viewBox="0 0 384 360" height="360" width="384"><g><path transform="translate(-42.61557,-54.61557) scale(4.69231,4.69231)" d="M86.305 42.635v-9.002c0-4.501-4.084-8.184-9.076-8.184h-19.864c-3.239 0-6.039-1.882-7.365-4.613-1.326 2.73-4.126 4.613-7.365 4.613h-19.864c-4.992 0-9.076 3.683-9.076 8.184v9.002c0 3.239-1.882 6.039-4.613 7.365 2.73 1.326 4.613 4.126 4.613 7.365v9.002c0 4.501 4.084 8.184 9.076 8.184h19.864c3.239 0 6.039 1.882 7.365 4.613 1.326-2.73 4.126-4.613 7.365-4.613h19.864c4.992 0 9.076-3.683 9.076-8.184v-9.002c0-3.239 1.882-6.039 4.613-7.365-2.73-1.326-4.613-4.126-4.613-7.365z" fill="white" fill-rule="nonzero" stroke="none" stroke-width="1" stroke-linecap="butt" stroke-linejoin="miter" stroke-miterlimit="10" stroke-dasharray="" stroke-dashoffset="0" font-family="none" font-weight="none" font-size="none" text-anchor="none" style="mix-blend-mode: normal"></path></g><g transform="matrix(1,0,0,1,113.0192411646101,99)"><svg viewBox="0 0 157.9615176707798 162" height="162" width="157.9615176707798"><g><svg viewBox="0 0 230.39999999999998 236.29046207185462" height="162" width="157.9615176707798"><g transform="matrix(1,0,0,1,0,184.40476790790896)"><svg viewBox="0 0 230.39999999999998 51.88569416394567" height="51.88569416394567" width="230.39999999999998"><g id="SvgjsG3276"><svg viewBox="0 0 230.39999999999998 51.88569416394567" height="51.88569416394567" width="230.39999999999998" id="SvgjsSvg3275"><g><svg viewBox="0 0 230.39999999999998 51.88569416394567" height="51.88569416394567" width="230.39999999999998"><g transform="matrix(1,0,0,1,0,0)"><svg width="230.39999999999998" viewBox="-3.1921412499999997 -32.23342903918241 191.44156127281562 43.11230585059751" height="51.88569416394567" data-palette-color="#111111"><path d="M16.112 9.794l-0.666 0.14c-0.633 0.133-1.113 0.135-1.439 0.007-0.328-0.135-0.525-0.36-0.591-0.673v0l-6.043-28.721-9.13 1.921c-0.6 0.126-1-0.284-1.199-1.229v0l-0.161-0.764c-0.2-0.952-0.001-1.492 0.6-1.618v0l22.35-4.702c0.633-0.133 1.049 0.277 1.25 1.229v0l0.161 0.763c0.199 0.946-0.018 1.486-0.651 1.618v0l-8.934 1.88 6.043 28.721c0.066 0.313-0.024 0.598-0.27 0.854-0.247 0.25-0.687 0.441-1.32 0.574zM33.671 6.497l-0.385 0.059c-0.705 0.107-1.208 0.085-1.507-0.065-0.307-0.156-0.484-0.392-0.532-0.708v0l-5.171-34.111c-0.053-0.349 0.045-0.634 0.295-0.853 0.243-0.219 0.718-0.382 1.423-0.489v0l0.386-0.059c0.699-0.106 1.2-0.091 1.503 0.045 0.297 0.137 0.472 0.38 0.526 0.73v0l1.966 12.972c0.478-0.76 1.055-1.444 1.732-2.053 0.675-0.615 1.431-1.124 2.267-1.527 0.842-0.404 1.695-0.672 2.558-0.803v0c1.635-0.248 3.083-0.147 4.345 0.303 1.267 0.442 2.298 1.192 3.092 2.252 0.801 1.059 1.325 2.405 1.573 4.04v0l2.527 16.669c0.048 0.316-0.048 0.594-0.288 0.833-0.241 0.232-0.715 0.402-1.42 0.508v0l-0.386 0.059c-0.705 0.107-1.208 0.085-1.506-0.065-0.307-0.156-0.484-0.392-0.532-0.708v0l-2.469-16.284c-0.233-1.536-0.817-2.634-1.754-3.295-0.93-0.661-2.195-0.871-3.797-0.628v0c-0.771 0.117-1.505 0.366-2.202 0.749-0.691 0.381-1.312 0.866-1.863 1.455-0.55 0.596-0.996 1.28-1.337 2.054v0l2.664 17.579c0.048 0.316-0.048 0.594-0.288 0.833-0.248 0.233-0.721 0.403-1.42 0.508zM59.975 3.165l-0.189 0.017c-0.677 0.061-1.181 0.01-1.51-0.155-0.323-0.172-0.5-0.417-0.528-0.735v0l-1.547-17.08c-0.12-1.321-0.258-2.4-0.414-3.236-0.155-0.829-0.295-1.483-0.418-1.96-0.124-0.477-0.194-0.812-0.212-1.005v0c-0.014-0.159 0.069-0.314 0.249-0.465 0.181-0.144 0.414-0.268 0.699-0.374 0.278-0.106 0.579-0.19 0.901-0.252 0.322-0.063 0.61-0.105 0.862-0.129v0c0.292-0.026 0.537 0.055 0.735 0.245 0.199 0.196 0.393 0.53 0.583 1.002 0.183 0.472 0.378 1.104 0.583 1.895v0c0.469-0.886 1.028-1.626 1.677-2.221 0.642-0.594 1.357-1.057 2.143-1.389 0.78-0.332 1.638-0.54 2.574-0.624v0c0.551-0.05 0.974 0.042 1.27 0.276 0.296 0.234 0.467 0.607 0.513 1.118v0c0.032 0.359 0.041 0.709 0.025 1.053-0.016 0.343-0.062 0.648-0.137 0.916-0.07 0.267-0.153 0.486-0.252 0.655-0.098 0.17-0.231 0.262-0.397 0.277v0c-0.226 0.02-0.514-0.017-0.864-0.113-0.351-0.102-0.894-0.12-1.631-0.053v0c-1.102 0.1-2.05 0.497-2.844 1.192-0.801 0.688-1.3 1.577-1.496 2.666v0l1.561 17.229c0.029 0.319-0.107 0.592-0.408 0.82-0.308 0.222-0.817 0.365-1.528 0.43zM83.805 2.009v0c-3.724 0.142-6.619-0.718-8.685-2.581-2.066-1.869-3.189-5.149-3.367-9.839v0c-0.108-2.818 0.238-5.216 1.036-7.195 0.805-1.972 2.038-3.5 3.698-4.584 1.66-1.084 3.702-1.672 6.127-1.765v0c2.198-0.084 4.055 0.322 5.571 1.219 1.509 0.903 2.662 2.277 3.459 4.121 0.798 1.851 1.249 4.135 1.352 6.853v0c0.011 0.293-0.057 0.606-0.204 0.939-0.148 0.326-0.347 0.607-0.598 0.843-0.251 0.236-0.523 0.36-0.817 0.371v0l-15.289 0.584c0.162 2.682 0.867 4.634 2.115 5.853 1.247 1.213 3.1 1.773 5.558 1.68v0c1.552-0.059 2.865-0.286 3.937-0.681 1.072-0.401 1.918-0.79 2.538-1.167 0.613-0.377 1.002-0.569 1.168-0.575v0c0.227-0.009 0.432 0.12 0.616 0.386 0.19 0.266 0.359 0.577 0.506 0.932 0.14 0.348 0.215 0.652 0.224 0.912v0c0.011 0.293-0.209 0.635-0.661 1.026-0.459 0.384-1.094 0.779-1.906 1.183-0.812 0.405-1.763 0.741-2.854 1.01-1.091 0.268-2.265 0.427-3.524 0.475zM75.955-12.523v0l12.811-0.488c-0.097-2.551-0.703-4.446-1.818-5.685-1.115-1.238-2.661-1.82-4.64-1.745v0c-1.419 0.054-2.603 0.413-3.552 1.077-0.948 0.67-1.661 1.581-2.137 2.733-0.47 1.152-0.691 2.522-0.664 4.108zM105.59 1.997v0c-2.366-0.062-4.326-0.703-5.882-1.925-1.555-1.228-2.3-3.088-2.235-5.58v0c0.043-1.646 0.356-3.028 0.938-4.147 0.576-1.119 1.496-2.005 2.761-2.659 1.264-0.647 2.93-1.097 4.997-1.35 2.061-0.253 4.58-0.341 7.559-0.263v0l0.059-2.279c0.019-0.746-0.123-1.43-0.426-2.052-0.31-0.628-0.841-1.136-1.591-1.522-0.75-0.393-1.788-0.607-3.114-0.641v0c-1.46-0.038-2.753 0.088-3.882 0.379-1.121 0.298-2.036 0.597-2.744 0.898-0.702 0.308-1.166 0.46-1.392 0.454v0c-0.16-0.004-0.311-0.088-0.454-0.252-0.142-0.17-0.276-0.394-0.402-0.67-0.119-0.277-0.215-0.562-0.288-0.858-0.072-0.295-0.106-0.556-0.1-0.783v0c0.007-0.253 0.287-0.536 0.843-0.848 0.562-0.312 1.306-0.609 2.234-0.892 0.934-0.282 1.961-0.516 3.079-0.7 1.125-0.177 2.254-0.251 3.387-0.222v0c1.46 0.038 2.758 0.242 3.895 0.612 1.144 0.37 2.094 0.895 2.85 1.575 0.762 0.687 1.341 1.506 1.737 2.456 0.395 0.951 0.577 2.026 0.546 3.225v0l-0.281 10.777c-0.035 1.326-0.023 2.414 0.034 3.262 0.058 0.842 0.124 1.5 0.199 1.975 0.068 0.469 0.099 0.816 0.093 1.043v0c-0.004 0.16-0.105 0.304-0.302 0.432-0.203 0.121-0.449 0.218-0.737 0.291-0.295 0.072-0.607 0.131-0.935 0.176-0.321 0.038-0.612 0.054-0.872 0.047v0c-0.293-0.008-0.517-0.12-0.671-0.337-0.155-0.211-0.292-0.568-0.412-1.071-0.113-0.51-0.24-1.17-0.379-1.981v0c-0.604 0.664-1.31 1.26-2.117 1.785-0.807 0.532-1.709 0.949-2.704 1.25-0.995 0.294-2.092 0.426-3.291 0.395zM105.872-1.547v0c1.166 0.03 2.2-0.103 3.102-0.4 0.895-0.303 1.715-0.695 2.461-1.176 0.739-0.481 1.423-1.007 2.052-1.577v0l0.15-5.728c-2.393-0.062-4.354-0.024-5.885 0.117-1.524 0.134-2.711 0.386-3.561 0.757-0.856 0.364-1.453 0.876-1.791 1.534-0.344 0.651-0.528 1.447-0.552 2.386v0c-0.034 1.293 0.29 2.288 0.972 2.987 0.675 0.698 1.693 1.065 3.052 1.1zM132.301 3.636v0c-1.932-0.178-3.539-0.822-4.823-1.932-1.277-1.109-2.183-2.648-2.717-4.619-0.535-1.971-0.676-4.324-0.423-7.059v0c0.235-2.549 0.809-4.776 1.721-6.68 0.905-1.898 2.087-3.349 3.545-4.352 1.458-1.004 3.124-1.419 4.995-1.247v0c1.288 0.119 2.55 0.446 3.786 0.982 1.236 0.536 2.274 1.184 3.115 1.945v0l1.107-11.999c0.032-0.352 0.22-0.602 0.561-0.752 0.335-0.15 0.858-0.192 1.568-0.127v0l0.19 0.018c0.677 0.062 1.163 0.198 1.459 0.406 0.289 0.207 0.417 0.487 0.384 0.839v0l-2.589 28.06c-0.122 1.321-0.182 2.407-0.18 3.258 0.002 0.844 0.022 1.505 0.058 1.983 0.037 0.472 0.045 0.821 0.024 1.047v0c-0.015 0.159-0.124 0.296-0.329 0.411-0.204 0.108-0.456 0.189-0.755 0.242-0.293 0.053-0.604 0.092-0.935 0.115-0.33 0.016-0.62 0.013-0.873-0.01v0c-0.292-0.027-0.508-0.154-0.647-0.382-0.147-0.221-0.261-0.586-0.341-1.096-0.086-0.517-0.172-1.184-0.257-2.002v0c-0.713 0.684-1.505 1.26-2.379 1.729-0.874 0.475-1.759 0.815-2.655 1.021-0.897 0.212-1.766 0.279-2.61 0.201zM133.896 0.177v0c1.029 0.095 2.095-0.108 3.199-0.608 1.104-0.501 2.059-1.236 2.865-2.206v0l1.178-12.766c-0.889-0.959-1.86-1.715-2.914-2.267-1.054-0.552-2.098-0.876-3.134-0.972v0c-1.772-0.164-3.227 0.539-4.362 2.108-1.136 1.569-1.845 3.887-2.128 6.954v0c-0.295 3.193 0.045 5.574 1.018 7.143 0.98 1.57 2.406 2.441 4.278 2.614zM153.55 6.046l-0.385-0.062c-0.704-0.113-1.176-0.286-1.416-0.52-0.245-0.242-0.342-0.521-0.291-0.836v0l2.709-16.935c0.21-1.31 0.342-2.389 0.396-3.238 0.054-0.842 0.079-1.51 0.078-2.003-0.002-0.493 0.012-0.835 0.043-1.026v0c0.025-0.158 0.144-0.288 0.355-0.389 0.211-0.095 0.468-0.158 0.77-0.19 0.296-0.034 0.607-0.041 0.935-0.023 0.328 0.019 0.617 0.048 0.867 0.088v0c0.29 0.046 0.497 0.184 0.623 0.414 0.131 0.237 0.222 0.596 0.273 1.076 0.057 0.488 0.098 1.16 0.124 2.015v0c0.761-0.661 1.585-1.195 2.473-1.599 0.881-0.399 1.785-0.67 2.713-0.812 0.922-0.15 1.83-0.153 2.725-0.01v0c1.633 0.261 2.981 0.798 4.047 1.61 1.073 0.806 1.826 1.835 2.261 3.086 0.441 1.252 0.531 2.694 0.27 4.327v0l-2.664 16.648c-0.051 0.316-0.227 0.551-0.528 0.706-0.3 0.148-0.803 0.165-1.507 0.052v0l-0.385-0.062c-0.704-0.113-1.176-0.286-1.416-0.52-0.245-0.242-0.342-0.521-0.291-0.836v0l2.601-16.263c0.245-1.534 0.023-2.758-0.668-3.672-0.684-0.913-1.826-1.497-3.426-1.753v0c-0.77-0.123-1.546-0.109-2.326 0.043-0.774 0.153-1.513 0.426-2.217 0.82-0.705 0.4-1.338 0.917-1.899 1.549v0l-2.809 17.557c-0.051 0.316-0.227 0.551-0.528 0.705-0.307 0.147-0.809 0.164-1.507 0.053zM179.56 10.765l-0.381-0.08c-0.698-0.146-1.161-0.342-1.39-0.587-0.233-0.253-0.317-0.536-0.251-0.85v0l4.815-22.971c0.072-0.346 0.264-0.578 0.575-0.697 0.304-0.12 0.806-0.107 1.504 0.04v0l0.382 0.08c0.692 0.145 1.156 0.334 1.393 0.568 0.231 0.232 0.31 0.521 0.237 0.867v0l-4.814 22.97c-0.066 0.313-0.253 0.54-0.562 0.68-0.314 0.132-0.816 0.125-1.508-0.02zM185.316-17.669v0c-0.757-0.159-1.275-0.366-1.556-0.622-0.28-0.256-0.387-0.544-0.319-0.864v0l0.597-2.848c0.067-0.32 0.28-0.541 0.639-0.663 0.359-0.122 0.918-0.104 1.675 0.054v0c0.763 0.16 1.283 0.361 1.559 0.603 0.284 0.237 0.389 0.531 0.316 0.884v0l-0.597 2.848c-0.067 0.32-0.28 0.541-0.64 0.663-0.353 0.124-0.911 0.105-1.674-0.055z" opacity="1" transform="matrix(1,0,0,1,0,0)" fill="black" class="wordmark-text-0" id="SvgjsPath3274"></path></svg></g></svg></g></svg></g></svg></g><g transform="matrix(1,0,0,1,49.49552574417778,0)"><svg viewBox="0 0 131.4089485116444 167.90210631452817" height="167.90210631452817" width="131.4089485116444"><g><svg xmlns="http://www.w3.org/2000/svg" xmlns:xlink="http://www.w3.org/1999/xlink" version="1.1" x="0" y="0" viewBox="11.996 2 72.004 92" enable-background="new 0 0 96 96" xml:space="preserve" height="167.90210631452817" width="131.4089485116444" class="icon-icon-0" data-fill-palette-color="quaternary" id="SvgjsSvg3273"><path d="M82.712 51.484L67.8 45.792 78.645 42.064A1.995 1.995 0 0 0 79.993 40.172V8C79.993 6.896 79.093 6 77.993 6S75.993 6.896 75.993 8V38.744L63.797 42.936C63.78 42.8 63.776 42.66 63.757 42.524L71.07 37.86C71.65 37.492 71.99 36.86 71.99 36.176V4A2 2 0 0 0 67.99 4V35.076L62.738 38.428A16.7 16.7 0 0 0 55.986 30.365V24A2 2 0 0 0 51.986 24V28.604C50.712 28.252 49.384 28 47.996 28S45.28 28.252 43.996 28.604V24A2 2 0 0 0 39.996 24V30.364A16.72 16.72 0 0 0 33.248 38.427L27.996 35.075V4A2 2 0 0 0 23.996 4V36.172C23.996 36.856 24.344 37.492 24.916 37.856L32.232 42.52C32.212 42.656 32.208 42.796 32.192 42.932L19.996 38.74V8A2 2 0 0 0 15.996 8V40.172C15.996 41.024 16.54 41.784 17.344 42.064L27.492 45.548 13.224 51.508A2 2 0 0 0 11.996 53.352V92C11.996 93.1 12.892 94 13.996 94S15.996 93.1 15.996 92V54.684L26.348 50.36 20.604 55.917C20.216 56.297 19.996 56.817 19.996 57.353V88C19.996 89.1 20.892 90 21.996 90S23.996 89.1 23.996 88V58.2L26.384 55.892A22.3 22.3 0 0 0 25.996 59.999C25.996 72.131 35.864 81.999 47.996 81.999S69.996 72.131 69.996 59.999C69.996 58.599 69.863 57.235 69.607 55.892L71.996 58.2V88C71.996 89.1 72.892 90 73.996 90S75.996 89.1 75.996 88V57.352C75.996 56.809 75.771 56.292 75.392 55.916L70.351 51.044 80 54.729V92C80 93.1 80.9 94 82 94 83.104 94 84 93.1 84 92V53.352A2.01 2.01 0 0 0 82.712 51.484" fill="black"></path></svg></g></svg></g><g></g></svg></g></svg></g></svg></g><defs><mask></mask></defs></svg><rect width="384" height="360" fill="black" stroke="none" visibility="hidden"></rect></g></mask><linearGradient x1="0" x2="1" y1="0.578" y2="0.595" id="d33986f5-ee7a-4400-b978-013842514e28"><stop stop-color="#dede50" offset="0"></stop><stop stop-color="#559c49" offset="1"></stop></linearGradient></svg><rect width="384" height="360" fill="none" stroke="none" visibility="hidden"></rect></g></svg></g></svg>